<svg xmlns="http://www.w3.org/2000/svg" viewBox="0 0 150 118.19"><defs><style>.cls-1{fill:#fff;}.cls-2{fill:#999;}</style></defs><title>Artboard 1 copy</title><g id="INFO"><path class="cls-1" d="M120.64,77.05a1.09,1.09,0,0,1,0-.25,1.16,1.16,0,0,0-1.26-1.13c-.54,0-1.08,0-1.62,0-1.29,0-2.59,0-3.88.06-.59,0-1.17.09-1.75.13a3.28,3.28,0,0,1-.43,0,2,2,0,0,1,0-.3,8.94,8.94,0,0,1,.41-1.56,22.29,22.29,0,0,1,.95-2.25.73.73,0,0,0,.07-.19c.17-.49.33-1,.51-1.46s.26-.64.37-1a21.29,21.29,0,0,1,1-2.65l.1-.24a1,1,0,0,0-.18-1.15,2.15,2.15,0,0,1-.6-1,.85.85,0,0,0-.65-.66,2.78,2.78,0,0,0-1.22-.09c-.27,0-.55.06-.83.11l-1.21.19c-.34.05-.69.08-1,.12l-.71.06-1.8.22c-.16,0-.35.06-.49-.15a8.76,8.76,0,0,1,.5-2.23c.4-1.12.87-2.21,1.3-3.32.07-.18.15-.36.23-.54a.5.5,0,0,1,.44-.33c.66-.06,1.33-.16,2-.17a14,14,0,0,1,2.59,0,2.39,2.39,0,0,1,1.39.2,1.28,1.28,0,0,0,.82,0,14.29,14.29,0,0,0,2.19-1,1.9,1.9,0,0,0,.37-.26,1.73,1.73,0,0,0,.51-1.88c-.07-.2-.13-.41-.19-.61a1.08,1.08,0,0,0-.68-.74,1.75,1.75,0,0,0-.82-.12l-1.42.09c-.61,0-1.21.08-1.81.09-1.06,0-2.12,0-3.18,0-1.75,0-3.5.1-5.25.16l-.32,0-3,.24c-.67,0-1.33.08-2,.14l-2.13.2a2.63,2.63,0,0,1-.41,0c-.14-.21,0-.37,0-.53.13-.59.28-1.18.42-1.76.19-.75.4-1.5.59-2.26a.62.62,0,0,1,.33-.45,1.64,1.64,0,0,0,.56-.52,1.6,1.6,0,0,1,1.06-.66c.61,0,1-.51,1.45-.81a.51.51,0,0,0,.12-.29,3.38,3.38,0,0,1,.38-1,1.73,1.73,0,0,0,.25-1.05,1.69,1.69,0,0,1,0-.45.69.69,0,0,0-.16-.66.51.51,0,0,1-.12-.6c.11-.23,0-.39-.2-.55s-.6-.55-.9-.83a1.09,1.09,0,0,1-.26-1.25c.16-.49.3-1,.51-1.47.37-.87.62-1.79,1-2.64.15-.31.28-.63.42-1,.63-1.49,1.25-3,1.91-4.46a32.55,32.55,0,0,0,1.46-3.46c.14-.46.29-.91.44-1.36.31-.94.63-1.88,1-2.82a12.11,12.11,0,0,0,.39-1.3,21.28,21.28,0,0,1,.65-2.1c.26-.78.55-1.55.82-2.32s.08-1.06-.7-1.11a1.57,1.57,0,0,1-1.16-.5,1.26,1.26,0,0,0-.24-.22,1.05,1.05,0,0,0-1.15-.17c-.06,0-.16,0-.27,0s0-.18,0-.26c-.08-.5-.23-.61-.74-.56-.24,0-.47.07-.71.08a1.18,1.18,0,0,0-1,.55c-.06.09-.09.2-.15.29a1.42,1.42,0,0,1-.79.45l-.51-.16c-.36.14-.63.26-.91.35a1.52,1.52,0,0,0-.88.73,2.2,2.2,0,0,0-.28.79c0,.34-.09.69-.14,1a3.13,3.13,0,0,1-.14.69,16.51,16.51,0,0,0-1,2.87c-.06.25-.21.48-.28.73a33.84,33.84,0,0,1-1.2,4l0,.12a14.6,14.6,0,0,1-.45,1.42c-.57,1.34-1.18,2.68-1.78,4a1.31,1.31,0,0,1-.17.22,2.09,2.09,0,0,1-.31-.24c-.7-.77-1.38-1.55-2.1-2.3-.89-.91-1.72-1.88-2.54-2.85a.8.8,0,0,1-.27-.7.5.5,0,0,0-.14-.34C89,25.61,88.5,25,88,24.37a11.54,11.54,0,0,1-1-1.1c-.25-.38-.54-.72-.81-1.08-.58-.75-1.1-1.54-1.67-2.3-.18-.24-.33-.51-.51-.75-.41-.59-.83-1.16-1.23-1.75s-.58-.91-.87-1.36a1.93,1.93,0,0,0-.28-.36c-.29-.32-.6-.62-.88-.94a1,1,0,0,0-.67-.36l-.39,0a2,2,0,0,1-1.13-.43,2.8,2.8,0,0,0-1.38-.67,1,1,0,0,1-.36-.13,1.14,1.14,0,0,0-1.17,0,.75.75,0,0,1-.24.08,1.6,1.6,0,0,0-1,.58,1.7,1.7,0,0,1-.44.37,9.1,9.1,0,0,1-1.66.73,1.13,1.13,0,0,0-.45.23A1.84,1.84,0,0,0,71,16.58c0,.11,0,.22,0,.33a.81.81,0,0,1-.43.75,1.53,1.53,0,0,1-.53.2,1.27,1.27,0,0,0-1,.79c-.23.58-.46,1.17-.68,1.75-.36,1-.7,2-1.07,2.92C66.66,25,66,26.7,65.37,28.4a16.35,16.35,0,0,0-.59,1.92,21,21,0,0,1-.84,2.58,1.51,1.51,0,0,1-.09.18c-.11.18-.24.25-.43.15s-.55-.33-.82-.51a3.81,3.81,0,0,0-.55-.33,5.37,5.37,0,0,1-1.43-.87,3.91,3.91,0,0,0-.41-.3l-1.68-1.11c-.88-.59-1.75-1.19-2.63-1.77-.54-.36-1.1-.69-1.65-1s-.88-.62-1.36-.87-1.11-.67-1.67-1a3.18,3.18,0,0,1-.37-.27.44.44,0,0,1-.12-.63,4.13,4.13,0,0,1,.31-.42c.11-.13.23-.25.33-.39.35-.46.68-.95,1-1.4.82-1,1.66-2,2.5-3,.2-.25.44-.47.66-.71l1.79-2c.38-.42.78-.81,1.15-1.23,1.35-1.52,2.59-3.12,3.85-4.72.31-.39.59-.8.87-1.21s.56-.87.85-1.29.46-.58.65-.89c.6-1,1.15-2,1.77-2.94a7.85,7.85,0,0,1,1.15-1.87c.06,0,.06-.21,0-.3a.57.57,0,0,0-.36-.43,5.24,5.24,0,0,1-1.63-1,1,1,0,0,0-.82-.29c-.15,0-.3,0-.45,0A8.15,8.15,0,0,1,61.87.28a1.13,1.13,0,0,0-.45,0A3,3,0,0,1,60,.07a.83.83,0,0,0-.74,0A2,2,0,0,0,58.3,1a.85.85,0,0,1-.49.49A11.06,11.06,0,0,1,56.33,2c-1.16.24-2.33.45-3.5.63-1.58.24-3.17.45-4.75.67a11.91,11.91,0,0,0-2.22.42,7.73,7.73,0,0,1-1,.18l-.57.07-2.56.43a12.16,12.16,0,0,0-1.46.29,8.34,8.34,0,0,1-1.79.28l-.9.07a10.13,10.13,0,0,1-1.23.06,4.3,4.3,0,0,0-1.47.17,10.5,10.5,0,0,1-2.37.33A4,4,0,0,0,30.88,6a2.62,2.62,0,0,1-.62.19,2.36,2.36,0,0,0-1,.4.84.84,0,0,0,.06,1.52,4,4,0,0,0,.48.19,4.64,4.64,0,0,0,.51.11.63.63,0,0,1,.54.49c.11.42.24.83.35,1.25a29.81,29.81,0,0,0,1.07,3.8,1.2,1.2,0,0,1,0,1.06,1.39,1.39,0,0,0-.2.93c.08.43.18.85.28,1.26a1.5,1.5,0,0,0,.53.8.84.84,0,0,1,.3.4,14.34,14.34,0,0,1,.34,1.58c.1.6.13,1.2.21,1.8.12,1,.27,1.93.4,2.89.09.73.16,1.46.24,2.19s.14,1.29.22,1.93c0,.34.07.69.12,1,.14.81.29,1.61.43,2.42.19,1.06.36,2.13.55,3.19.12.7.26,1.4.39,2.1a12.7,12.7,0,0,0,.3,1.39c.27.83.35,1.69.56,2.53.16.62.24,1.27.37,1.9a8.69,8.69,0,0,1,.23,1.6,4.33,4.33,0,0,0,.1.71c.11.7.23,1.4.33,2.11.14,1,.25,2.06.4,3.08A8.38,8.38,0,0,0,38.67,52a.84.84,0,0,0,.22.32c.24.27.49.54.73.82a.91.91,0,0,0,.79.37,3.68,3.68,0,0,0,1.68-.43,4,4,0,0,1,.81-.39,5.52,5.52,0,0,0,1.72-.7,1,1,0,0,1,.25-.08c.25-.12.51-.23.75-.36a7.67,7.67,0,0,1,1.21-.62,4.15,4.15,0,0,0,.86-.45c.36-.21.4-.35.3-.75a4.54,4.54,0,0,1-.12-.5c-.09-.54-.17-1.07-.3-1.59a8.77,8.77,0,0,1-.2-1.54A11.57,11.57,0,0,0,47.05,44c0-.19-.09-.38-.13-.57l-.33-1.65c-.08-.4-.16-.8-.25-1.2-.22-1-.43-2-.65-3s-.43-1.85-.62-2.78c-.27-1.4-.52-2.8-.77-4.2-.1-.6-.18-1.2-.25-1.8a1.51,1.51,0,0,1,.06-.35,1,1,0,0,1,.63.22c.79.45,1.57.91,2.35,1.37A47.2,47.2,0,0,1,52,33.42l.79.58c1.15.79,2.39,1.45,3.49,2.33l.16.11c.65.5,1.33,1,1.95,1.49s1.3,1.21,1.94,1.82c.16.15.29.32.44.48a7.81,7.81,0,0,1,1,1.59,3.94,3.94,0,0,0,.93,1,1.57,1.57,0,0,0,.7.3A3,3,0,0,0,65,43a3.1,3.1,0,0,1,.62-.13l1.73-.23a1,1,0,0,0,.25-.08c.38-.16.76-.29,1.13-.48a2.47,2.47,0,0,1,1.11-.28,3.53,3.53,0,0,0,1.33-.48.29.29,0,0,0,.16-.38,1,1,0,0,0-.13-.29l-.87-1c-.35-.41-.73-.8-1.07-1.22a.45.45,0,0,1,.25-.72.64.64,0,0,1,.43,0,1.67,1.67,0,0,0,1.26.07l.75-.22c.61-.23,1.2-.49,1.82-.69a14.07,14.07,0,0,0,1.88-.68A2.67,2.67,0,0,1,76,36c.67-.19,1.32-.42,2-.57s1.45-.42,2.21-.51c.48-.06,1-.19,1.45-.29a1.88,1.88,0,0,0,.3-.12c.47-.21,1-.42,1.43-.61s.79-.16,1.11-.48a3,3,0,0,1,.36.32c.46.51.92,1,1.37,1.56.74.86,1.56,1.67,2.24,2.59.26.35.49.72.78,1,.72.8,1.28,1.73,1.94,2.58l0,0a.48.48,0,0,1,.08.43c-.15.59-.29,1.18-.44,1.76s-.32,1-.41,1.5c-.15.83-.28,1.66-.51,2.47a26.76,26.76,0,0,1-.81,3.2.5.5,0,0,0,0,.13c-.19.77-.37,1.55-.55,2.33S88.12,55.11,88,56s-.32,1.48-.48,2.21c-.38,1.65-.64,3.31-.94,5-.26,1.4-.45,2.81-.76,4.2-.23,1-.36,2-.57,3.06a19.49,19.49,0,0,1-.9,3.24c-.17.44-.34.89-.47,1.34s-.24,1.19-.42,1.76a11.19,11.19,0,0,1-.71,1.88,1.47,1.47,0,0,0,0,1.41c.12.26.21.52.32.78s.29.63.44.94a.88.88,0,0,0,.47.42,3.78,3.78,0,0,0,2.15.29c.92-.13,1.84-.21,2.77-.31.36,0,.73-.07,1.09-.12.84-.09,1.67-.19,2.51-.3s1.58-.24,2.37-.36c.25,0,.51-.07.77-.09l.83,0L99.06,81h.39c.52,0,1,0,1.55,0l2.4-.11a.65.65,0,0,1,.71.42,1,1,0,0,0,1,.55,3.46,3.46,0,0,0,1.94-.61c.22-.14.42-.32.63-.45a1.44,1.44,0,0,1,.47-.22,11,11,0,0,1,1.15-.18c.71-.08,1.42-.13,2.13-.18.51,0,1-.08,1.55-.09.84,0,1.68,0,2.52,0,.41,0,.82.09,1.22.13a1.25,1.25,0,0,0,.51,0,4.37,4.37,0,0,0,.78-.31,5,5,0,0,1,1.5-.58.73.73,0,0,0,.4-.18A2.08,2.08,0,0,0,120.64,77.05ZM48.45,15.72c-.6.71-1.22,1.4-1.81,2.12-.78.95-1.54,1.91-2.32,2.87l-.82,1-.18.15a.36.36,0,0,1-.28-.34c0-.26-.07-.51-.1-.77a33.78,33.78,0,0,0-.88-5.1c-.13-.53-.26-1.05-.41-1.57a4.85,4.85,0,0,1-.24-1.46,1.25,1.25,0,0,0-.11-.5c-.42-1.32-.68-2.68-1-4,0-.17-.1-.33-.14-.5-.09-.41,0-.58.4-.65s.86-.1,1.29-.15l.83-.11,1-.16,2.62-.42c.31,0,.64-.06,1-.12.61-.1,1.22-.25,1.84-.33,1.12-.15,2.23-.27,3.35-.4a4.46,4.46,0,0,0,.51-.07,23.37,23.37,0,0,1,2.76-.34,2.26,2.26,0,0,1,.45,0c.22,0,.32.17.24.36a3,3,0,0,1-.21.4A33,33,0,0,1,53.4,9.67c-.45.57-.9,1.15-1.32,1.75a19.34,19.34,0,0,1-1.25,1.49l-1.46,1.72Zm30.72,13.5c-.75.19-1.48.45-2.23.68a10.06,10.06,0,0,1-2.33.49,3.06,3.06,0,0,0-1.5.56c-.16.11-.3.25-.55.19a1,1,0,0,1,0-.3c.07-.23.16-.45.24-.67.16-.45.32-.9.49-1.34.09-.24.21-.47.3-.71s.3-.72.42-1.09c.37-1.08.72-2.17,1.08-3.25.09-.27.23-.51.35-.8a1.17,1.17,0,0,1,.24.14c.3.35.61.68.87,1.05a21.65,21.65,0,0,0,1.91,2.36c.16.18.29.38.45.56.35.4.72.8,1.09,1.19l.34.41A3.2,3.2,0,0,1,79.17,29.22ZM94.31,64.56c.09-.49.13-1,.19-1.47a1.61,1.61,0,0,1,.08-.38,23.68,23.68,0,0,0,.54-2.47c.09-.42.18-.84.25-1.26a.53.53,0,0,1,.46-.48c.53-.09,1.06-.2,1.59-.27,1-.15,2-.29,3.08-.4.77-.09,1.55-.13,2.32-.19l.4,0a9.64,9.64,0,0,1-.21,1c-.14.48-.32.94-.5,1.4s-.34.84-.52,1.25c-.26.59-.54,1.18-.79,1.77a4.43,4.43,0,0,0-.23.73.82.82,0,0,1-.84.66c-.61,0-1.21.15-1.81.17A30.13,30.13,0,0,0,95,65a1.66,1.66,0,0,1-.32,0C94.44,65,94.23,65,94.31,64.56Zm14,3.75a6.68,6.68,0,0,1-.36,1.38c-.14.31-.22.65-.34,1s-.2.43-.29.65a2.6,2.6,0,0,0-.13.36c-.17.67-.32,1.34-.48,2a1.32,1.32,0,0,1-.22.53,3,3,0,0,0-.58,1.42,2.48,2.48,0,0,1-.24.66.46.46,0,0,1-.41.27l-1,0-2.46.07-1.42,0c-1.1,0-2.2.09-3.29.16s-2,.16-3,.23l-2.52.16a1.68,1.68,0,0,1-.4-.07c.05-.24.06-.46.12-.66.3-1.08.6-2.16.92-3.23a15.15,15.15,0,0,0,.67-2.89,2,2,0,0,1,0-.26c.12-.44.21-.54.66-.56a15.55,15.55,0,0,0,2-.36c.8-.16,1.61-.29,2.42-.39q2-.26,3.93-.45c.42,0,.86,0,1.29,0,1.1-.06,2.2-.11,3.29-.18.33,0,.64-.11,1-.17a1.3,1.3,0,0,1,.78,0A1.13,1.13,0,0,1,108.28,68.31Z"/><path class="cls-1" d="M0,92.39H6.29A4.83,4.83,0,0,1,9.77,93.7,4.33,4.33,0,0,1,11.14,97a4.58,4.58,0,0,1-.23,1.5,4,4,0,0,1-.57,1.12,6.26,6.26,0,0,1-.67.74,2.73,2.73,0,0,1-.56.41l-.25.14,2.76,4.86H7.81l-2.28-4.2H3.62v4.2H0ZM7.13,96a1.46,1.46,0,0,0-1-.38H3.62v2.66H6.09a1.42,1.42,0,0,0,1-.38,1.33,1.33,0,0,0,0-1.9Z"/><path class="cls-1" d="M18.37,105.73v-1l-.28.34a3.39,3.39,0,0,1-.83.55,2.83,2.83,0,0,1-1.36.34,3.16,3.16,0,0,1-2.19-.77,2.44,2.44,0,0,1-.86-1.89,2.58,2.58,0,0,1,.74-1.9,4.1,4.1,0,0,1,2.11-1.06l2.67-.56a.84.84,0,0,0-.34-.67,1.46,1.46,0,0,0-1-.29A2.45,2.45,0,0,0,16,99a2.7,2.7,0,0,0-.72.47l-.22.25L13.42,98a1.45,1.45,0,0,0,.15-.2,4.41,4.41,0,0,1,.46-.43,5.4,5.4,0,0,1,.78-.54,4.91,4.91,0,0,1,1.1-.44,5.06,5.06,0,0,1,1.41-.2,4.42,4.42,0,0,1,3.08,1.1,3.42,3.42,0,0,1,1.21,2.63v5.8ZM18,103a1.64,1.64,0,0,0,.42-1.16v-.29l-1.42.29a1.21,1.21,0,0,0-.62.33.75.75,0,0,0-.25.53c0,.5.3.76.87.76A1.29,1.29,0,0,0,18,103Z"/><path class="cls-1" d="M26.36,105.54l-3.42-9.15h3.42l1.72,5.43,1.71-5.43h3.44l-3.53,9.34a8.42,8.42,0,0,1-1.76,3,3.22,3.22,0,0,1-2.34,1,5.59,5.59,0,0,1-.91-.08,4.1,4.1,0,0,1-.67-.15l-.23-.06v-2.86a2.23,2.23,0,0,0,.95.2,1.53,1.53,0,0,0,1.44-.87Z"/><path class="cls-1" d="M46,100.78c0-1-.41-1.43-1.24-1.43a1.08,1.08,0,0,0-.88.44,2,2,0,0,0-.35,1.27v4.67H40.26v-5c0-1-.41-1.43-1.24-1.43a1.06,1.06,0,0,0-.88.44,2,2,0,0,0-.35,1.27v4.67H34.55V96.39h3.24v1.14l.09-.14s.13-.16.27-.31a3.72,3.72,0,0,1,.48-.41,3.22,3.22,0,0,1,.67-.33,2.74,2.74,0,0,1,.87-.14,3,3,0,0,1,1.5.38,2.76,2.76,0,0,1,.92.77l.25.38a1.44,1.44,0,0,1,.12-.17,5.07,5.07,0,0,1,.36-.37,3.75,3.75,0,0,1,.61-.46,3.92,3.92,0,0,1,2-.53,3,3,0,0,1,2.41,1.07,4.29,4.29,0,0,1,.93,2.93v5.53H46Z"/><path class="cls-1" d="M60,104.46a5.27,5.27,0,0,1-7.26,0,4.58,4.58,0,0,1,0-6.8,5.24,5.24,0,0,1,7.26,0,4.56,4.56,0,0,1,0,6.8Zm-4.89-2a1.67,1.67,0,0,0,2.53,0,2.11,2.11,0,0,0,0-2.84,1.67,1.67,0,0,0-2.53,0,2.14,2.14,0,0,0,0,2.84Z"/><path class="cls-1" d="M66.72,97.53l.31-.37a4.4,4.4,0,0,1,.9-.59,3,3,0,0,1,1.46-.37,3.11,3.11,0,0,1,2.47,1.11,4.25,4.25,0,0,1,1,2.89v5.53H69.58v-5a1.66,1.66,0,0,0-.37-1.12,1.25,1.25,0,0,0-1-.41,1.39,1.39,0,0,0-1.1.49,1.89,1.89,0,0,0-.43,1.32v4.67H63.48V96.39h3.24Z"/><path class="cls-1" d="M81.76,92.39H85v13.34H81.76v-1.15l-.1.15a2.39,2.39,0,0,1-.32.31,3,3,0,0,1-.53.41,3,3,0,0,1-.74.32,3.1,3.1,0,0,1-1,.14,4,4,0,0,1-3-1.37,5.4,5.4,0,0,1,0-7,4,4,0,0,1,3-1.38,3.12,3.12,0,0,1,1.47.34,2.78,2.78,0,0,1,.93.65l.27.34Zm-.54,7.25A1.68,1.68,0,0,0,80,99.06a1.66,1.66,0,0,0-1.26.58,2.11,2.11,0,0,0,0,2.84,1.7,1.7,0,0,0,1.26.58,1.72,1.72,0,0,0,1.27-.58,2.14,2.14,0,0,0,0-2.84Z"/><path class="cls-2" d="M92.61,105.73V92.39H98a3.9,3.9,0,0,1,2.77,1.07,3.28,3.28,0,0,1,.81,3.92,2.78,2.78,0,0,1-.65.93l-.35.27.21.13c.09.06.25.18.49.38a3.12,3.12,0,0,1,.61.65,3.84,3.84,0,0,1,.47.91,3.15,3.15,0,0,1,.22,1.17,3.64,3.64,0,0,1-1.23,2.75,4.29,4.29,0,0,1-3.06,1.16ZM94.7,94.2v3.62H98a1.81,1.81,0,1,0,0-3.62Zm3.62,9.71a2.19,2.19,0,0,0,1.57-.62,2.12,2.12,0,0,0,.63-1.56,2.16,2.16,0,0,0-.63-1.57,2.13,2.13,0,0,0-1.57-.63H94.7v4.38Z"/><path class="cls-2" d="M107,94.55a1.21,1.21,0,0,1-1.64,0,1.1,1.1,0,0,1-.32-.82,1.08,1.08,0,0,1,.32-.82,1.18,1.18,0,0,1,1.64,0,1.08,1.08,0,0,1,.32.82A1.1,1.1,0,0,1,107,94.55Zm.13,11.18h-1.91V96.58h1.91Z"/><path class="cls-2" d="M114.7,98.87l-.22-.21a2.75,2.75,0,0,0-.6-.34,2.11,2.11,0,0,0-.9-.21,1.54,1.54,0,0,0-1,.28.82.82,0,0,0,0,1.34,2.51,2.51,0,0,0,.87.41c.34.09.72.21,1.12.35a8.73,8.73,0,0,1,1.12.46,2.22,2.22,0,0,1,.87.8,2.39,2.39,0,0,1,.35,1.31,2.6,2.6,0,0,1-1,2,3.64,3.64,0,0,1-2.48.83,4.93,4.93,0,0,1-1.28-.16,4.82,4.82,0,0,1-1-.4,7.2,7.2,0,0,1-.68-.47,2.34,2.34,0,0,1-.42-.41l-.14-.18,1.23-1.23.28.32a3.21,3.21,0,0,0,.78.51,2.61,2.61,0,0,0,1.23.31,1.79,1.79,0,0,0,1.15-.31,1,1,0,0,0,.38-.83.82.82,0,0,0-.35-.67,2.65,2.65,0,0,0-.86-.41c-.35-.09-.72-.21-1.12-.35a10.65,10.65,0,0,1-1.13-.47,2.08,2.08,0,0,1-.87-.8,2.35,2.35,0,0,1-.34-1.3,2.44,2.44,0,0,1,.92-1.86,3.4,3.4,0,0,1,2.32-.81,4.66,4.66,0,0,1,1.06.12,3.64,3.64,0,0,1,.84.31,5.86,5.86,0,0,1,.58.37l.35.3.12.14Z"/><path class="cls-2" d="M119.44,97.81a4.65,4.65,0,0,1,6.69,0,4.76,4.76,0,0,1-3.35,8.1,4.72,4.72,0,0,1-3.34-8.1ZM124.79,99a2.74,2.74,0,0,0-4,0,3.18,3.18,0,0,0,0,4.33,2.74,2.74,0,0,0,4,0,3.18,3.18,0,0,0,0-4.33Z"/><path class="cls-2" d="M131.72,97.53l.12-.12a2.68,2.68,0,0,1,.36-.27,3.62,3.62,0,0,1,.57-.35,4.73,4.73,0,0,1,.77-.28,3.79,3.79,0,0,1,.94-.12,3.52,3.52,0,0,1,2.69,1.09,4.08,4.08,0,0,1,1,2.92v5.33h-1.91V100.4a2.26,2.26,0,0,0-.63-1.64,2.1,2.1,0,0,0-1.56-.65,2.23,2.23,0,0,0-1.73.7,2.82,2.82,0,0,0-.65,2v5h-1.91V96.58h1.91Z"/><path class="cls-2" d="M141.89,97.81a4.64,4.64,0,1,1-1.42,3.35A4.57,4.57,0,0,1,141.89,97.81ZM147.25,99a2.75,2.75,0,0,0-4,0,3.18,3.18,0,0,0,0,4.33,2.75,2.75,0,0,0,4,0,3.21,3.21,0,0,0,0-4.33ZM146,92.39h2l-2,2.67h-1.43Z"/><path class="cls-2" d="M44.68,111a3.61,3.61,0,0,1,2.61,1,3.44,3.44,0,0,1,0,5,3.6,3.6,0,0,1-2.61,1H42.46V111Zm-1.46.71v5.65h1.46a2.86,2.86,0,0,0,2.08-.82,2.7,2.7,0,0,0,.84-2,2.67,2.67,0,0,0-.84-2,2.87,2.87,0,0,0-2.08-.83Z"/><path class="cls-2" d="M49.74,111.32a.44.44,0,0,1,.33-.13.44.44,0,0,1,.32.13.41.41,0,0,1,.13.32.42.42,0,0,1-.13.32.44.44,0,0,1-.32.13.44.44,0,0,1-.33-.13.46.46,0,0,1-.13-.32A.44.44,0,0,1,49.74,111.32Zm0,1.93h.7v4.84h-.7Z"/><path class="cls-2" d="M54.45,114.31a.92.92,0,0,0-.11-.14A1.53,1.53,0,0,0,54,114a1.35,1.35,0,0,0-.59-.14,1,1,0,0,0-.66.21.62.62,0,0,0-.25.49.54.54,0,0,0,.27.47,2.23,2.23,0,0,0,.66.29c.25.07.51.15.76.24a1.48,1.48,0,0,1,.66.44,1.17,1.17,0,0,1,.27.79,1.33,1.33,0,0,1-.48,1,1.91,1.91,0,0,1-1.28.41,2.27,2.27,0,0,1-.65-.09,1.79,1.79,0,0,1-.5-.21,1.87,1.87,0,0,1-.34-.25,1.52,1.52,0,0,1-.22-.21l-.06-.09.51-.51,0,.08a1.35,1.35,0,0,0,.15.17,2.39,2.39,0,0,0,.26.21,1.09,1.09,0,0,0,.36.17,1.32,1.32,0,0,0,.44.08,1.19,1.19,0,0,0,.78-.23.72.72,0,0,0,.28-.57.57.57,0,0,0-.28-.49,2.05,2.05,0,0,0-.65-.3l-.77-.25a1.61,1.61,0,0,1-.66-.43,1.07,1.07,0,0,1-.27-.76,1.23,1.23,0,0,1,.46-1,1.69,1.69,0,0,1,1.16-.41,2,2,0,0,1,.54.07,1.7,1.7,0,0,1,.44.16,1.84,1.84,0,0,1,.31.2,1.37,1.37,0,0,1,.2.16l.07.07Z"/><path class="cls-2" d="M56.72,115.93a1.75,1.75,0,0,0,1.71,1.61,1.86,1.86,0,0,0,.84-.2,1.8,1.8,0,0,0,.56-.41l.17-.19.45.45-.09.11a1.72,1.72,0,0,1-.24.24,3.08,3.08,0,0,1-.41.3,2.57,2.57,0,0,1-.57.24,2.15,2.15,0,0,1-.71.11,2.27,2.27,0,0,1-1.7-.73,2.59,2.59,0,0,1,0-3.57,2.29,2.29,0,0,1,3.32,0,2.39,2.39,0,0,1,.66,1.73l-.05.37Zm.56-1.67a1.71,1.71,0,0,0-.56,1.06H60a1.77,1.77,0,0,0-.53-1.08,1.5,1.5,0,0,0-1.09-.43A1.53,1.53,0,0,0,57.28,114.26Z"/><path class="cls-2" d="M62.67,114l0-.09s.09-.1.19-.19a1.79,1.79,0,0,1,.31-.25,1.66,1.66,0,0,1,.44-.19,1.79,1.79,0,0,1,.57-.09,1.89,1.89,0,0,1,1.42.57,2.08,2.08,0,0,1,.54,1.5v2.87h-.7v-2.87a1.43,1.43,0,0,0-.37-1,1.24,1.24,0,0,0-.94-.39,1.44,1.44,0,0,0-1.08.45,1.62,1.62,0,0,0-.43,1.16v2.67H62v-4.84h.71Zm.47-2a.82.82,0,0,0-.12.49h-.51a1.4,1.4,0,0,1,.26-.9.8.8,0,0,1,.65-.31.88.88,0,0,1,.53.16c.16.12.3.22.42.33a.53.53,0,0,0,.36.16.35.35,0,0,0,.29-.16.84.84,0,0,0,.12-.49h.5a1.35,1.35,0,0,1-.26.89.81.81,0,0,1-.65.32.88.88,0,0,1-.53-.17,2.94,2.94,0,0,1-.41-.33.63.63,0,0,0-.37-.16A.35.35,0,0,0,63.14,111.91Z"/><path class="cls-2" d="M68.17,113.88a2.46,2.46,0,0,1,3.5,0,2.47,2.47,0,0,1,.72,1.79,2.44,2.44,0,0,1-.72,1.79,2.46,2.46,0,0,1-3.5,0,2.44,2.44,0,0,1-.72-1.79A2.47,2.47,0,0,1,68.17,113.88Zm3,.47a1.65,1.65,0,0,0-1.24-.54,1.69,1.69,0,0,0-1.25.54,1.94,1.94,0,0,0,0,2.64,1.69,1.69,0,0,0,2.49,0,1.95,1.95,0,0,0,0-2.65Z"/><path class="cls-2" d="M76.47,112a3.58,3.58,0,0,1,3.6-.9,3.07,3.07,0,0,1,.81.36,3.85,3.85,0,0,1,.57.43,2.26,2.26,0,0,1,.35.36l.11.16-.5.45-.09-.13a3,3,0,0,0-.28-.29,2.35,2.35,0,0,0-.47-.36,2.93,2.93,0,0,0-.66-.3,2.82,2.82,0,0,0-.87-.13,2.78,2.78,0,0,0-2.05.84,3,3,0,0,0,0,4.17,2.78,2.78,0,0,0,2.05.84,3.1,3.1,0,0,0,.81-.1,3.2,3.2,0,0,0,.63-.24l.43-.28a1.73,1.73,0,0,0,.27-.24l.08-.1v-1.36H79.64v-.7H82v2.27l-.12.15-.37.35a6.7,6.7,0,0,1-.6.45,3.73,3.73,0,0,1-.84.35,3.58,3.58,0,0,1-1,.15,3.63,3.63,0,0,1-2.57-6.2Z"/><path class="cls-2" d="M86.1,113.86h-.31a1.49,1.49,0,0,0-1.07.43,1.54,1.54,0,0,0-.44,1.13v2.67h-.7v-4.84h.7v.66a.33.33,0,0,1,.06-.08,1.14,1.14,0,0,1,.19-.18,1.83,1.83,0,0,1,.31-.24,3.16,3.16,0,0,1,.46-.18,2.29,2.29,0,0,1,.6-.08h.2Z"/><path class="cls-2" d="M90,115a1.16,1.16,0,0,0-1.21-1.21A1.55,1.55,0,0,0,88,114a1.67,1.67,0,0,0-.49.35l-.15.17-.45-.45s0-.06.08-.1a2.7,2.7,0,0,1,.23-.22,2.42,2.42,0,0,1,.36-.27,1.74,1.74,0,0,1,.51-.22,2,2,0,0,1,.64-.1,1.88,1.88,0,0,1,1.37.54,1.8,1.8,0,0,1,.54,1.33v3.07H90v-.65l-.06.08a1.79,1.79,0,0,1-.19.18,1.59,1.59,0,0,1-.76.41,1.77,1.77,0,0,1-.56.08,1.83,1.83,0,0,1-1.22-.42,1.29,1.29,0,0,1-.49-1,1.34,1.34,0,0,1,.36-1,1.85,1.85,0,0,1,1-.49Zm-.44,2.07a1.61,1.61,0,0,0,.44-1.16v-.31l-1.67.31c-.6.11-.91.4-.91.85a.65.65,0,0,0,.27.54,1.13,1.13,0,0,0,.74.22A1.52,1.52,0,0,0,89.54,117.09ZM89.37,111h.75l-1,1.37h-.56Z"/><path class="cls-2" d="M94.41,113.91H93.24v4.18h-.7v-4.18h-.76v-.66h.76v-.9a1.5,1.5,0,0,1,.35-1,1.27,1.27,0,0,1,1-.37,2.2,2.2,0,0,1,.36,0l.27.08.07,0v.65a1.41,1.41,0,0,0-.65-.15c-.44,0-.66.25-.66.76v.9h1.17Z"/><path class="cls-2" d="M95.54,111.32a.44.44,0,0,1,.32-.13.44.44,0,0,1,.46.45.46.46,0,0,1-.13.32.44.44,0,0,1-.33.13.44.44,0,0,1-.32-.13.42.42,0,0,1-.13-.32A.41.41,0,0,1,95.54,111.32Zm0,1.93h.71v4.84h-.71Z"/><path class="cls-2" d="M98.19,113.89a2.32,2.32,0,0,1,1.71-.74,2.52,2.52,0,0,1,1.75.73l.21.23-.5.5a.28.28,0,0,1-.06-.08l-.18-.2a1.74,1.74,0,0,0-.29-.25,1.76,1.76,0,0,0-.41-.19,1.82,1.82,0,0,0-.52-.08,1.6,1.6,0,0,0-1.21.54,2,2,0,0,0,0,2.65,1.6,1.6,0,0,0,1.21.54,1.72,1.72,0,0,0,.8-.2,2,2,0,0,0,.55-.41l.16-.19.5.45-.09.11a1.66,1.66,0,0,1-.26.24,3.08,3.08,0,0,1-.41.3,2.29,2.29,0,0,1-.56.24,2.07,2.07,0,0,1-.69.11,2.31,2.31,0,0,1-1.71-.73,2.6,2.6,0,0,1,0-3.57Z"/><path class="cls-2" d="M103.39,113.88a2.46,2.46,0,0,1,3.5,0,2.47,2.47,0,0,1,.72,1.79,2.44,2.44,0,0,1-.72,1.79,2.46,2.46,0,0,1-3.5,0,2.44,2.44,0,0,1-.72-1.79A2.47,2.47,0,0,1,103.39,113.88Zm3,.47a1.65,1.65,0,0,0-1.24-.54,1.67,1.67,0,0,0-1.25.54,1.94,1.94,0,0,0,0,2.64,1.69,1.69,0,0,0,2.49,0,1.95,1.95,0,0,0,0-2.65Z"/></g></svg>